<?xml version="1.0" encoding="utf-8"?>
<!-- Generator: Adobe Illustrator 19.0.0, SVG Export Plug-In . SVG Version: 6.00 Build 0)  -->
<svg version="1.1" id="Layer_1" xmlns="http://www.w3.org/2000/svg" xmlns:xlink="http://www.w3.org/1999/xlink" x="0px" y="0px"
	 viewBox="0 0 311.7 314.7" style="enable-background:new 0 0 311.7 314.7;" xml:space="preserve">
<style type="text/css">
	.st0{fill:#F48587;}
</style>
<g>
	<g>
		<path class="st0" d="M192.7,225.3h-47.8l4.5-21.2H82.7l6.3-29.4l0.2-0.2l71-67.7h57.7l-15.2,72h19.5l-5.4,25.2h-19.5L192.7,225.3z
			 M147.5,223.2H191l4.5-21.2H215l4.5-21.1H200l15.2-72H161l-70.2,66.9L85.2,202h66.7L147.5,223.2z M156.5,180.9h-39.3l47-46h2
			L156.5,180.9z M122.2,178.9h32.5l8.5-40.1L122.2,178.9z"/>
	</g>
	<polygon id="XMLID_1_" class="st0" points="56.3,174.7 54.9,173.2 186.6,47.2 188.1,48.7 	"/>
</g>
</svg>
