<?xml version="1.0" encoding="utf-8"?>
<!-- Generator: Adobe Illustrator 19.0.0, SVG Export Plug-In . SVG Version: 6.00 Build 0)  -->
<svg version="1.1" id="Layer_1" xmlns="http://www.w3.org/2000/svg" xmlns:xlink="http://www.w3.org/1999/xlink" x="0px" y="0px"
	 viewBox="0 0 318.2 393.2" style="enable-background:new 0 0 318.2 393.2;" xml:space="preserve">
<style type="text/css">
	.st0{fill:#FFDD00;}
	.st1{fill:#D7006D;}
</style>
<g>
	<g>
		<polygon id="XMLID_7_" class="st0" points="189.5,218.7 189.2,219 189.8,219 		"/>
		<polygon id="XMLID_5_" class="st1" points="146.1,175.8 132.2,162 117.9,176.3 103.6,162 88.9,176.6 103.5,191.2 117.9,176.9 
			132.2,191.2 146.1,177.4 159.9,191.2 174.6,176.6 159.9,162 		"/>
		<polygon id="XMLID_4_" class="st1" points="203.9,175.3 189.6,161 174.9,175.6 189.6,190.2 203.9,175.9 218.2,190.2 232.9,175.6 
			218.3,161 		"/>
		<polygon id="XMLID_3_" class="st1" points="101.3,131.3 115.9,145.9 130.5,131.4 145,145.9 159.6,131.3 174.3,145.9 188.9,131.3 
			189.7,131.3 204.3,145.9 219,131.3 233.6,145.9 248.3,131.3 233.6,116.6 233.6,116.6 219,102 218.2,102.7 160.4,102.7 159.6,102 
			158.9,102.7 102,102.7 101.3,102 86.7,116.6 72,131.3 86.7,145.9 		"/>
		<path class="st1" d="M248,307.5l0.3-0.3l-14.6-14.6l0,0L233,292l0.2-0.2l14.1-14.1h0.7v-58.7h-0.5l0.4-0.4l-14.7-14.6l-14.6,14.6
			l-14.6-14.6l-14,14l-14.5-14.5L160.9,218l-14.6-14.6l-14.6,14.6l1,1h-2.4l0.5-0.5L116,203.9l-14.7,14.6l-14.6-14.6l-14.7,14.6
			l0.3,0.3h-0.1v57.9l-0.3,0.3l0.3,0.3v0.3h0.3l14.1,14.1l0,0l0.4,0.4l-0.5,0.5L72,307.3l0.1,0.1l-12.3,12.3
			c5.3,4.5,10.9,8.7,16.8,12.5l24.8-24.8l14.5,14.5l14.6-14.6h59.2l14.6,14.6l14.4-14.4l24.3,24.3c5.9-3.8,11.4-8,16.7-12.6
			L248,307.5z M189.5,218.7l0.3,0.3h-0.6L189.5,218.7z"/>
	</g>
</g>
</svg>
