<?xml version="1.0" encoding="utf-8"?>
<!-- Generator: Adobe Illustrator 19.0.0, SVG Export Plug-In . SVG Version: 6.00 Build 0)  -->
<svg version="1.1" id="Layer_1" xmlns="http://www.w3.org/2000/svg" xmlns:xlink="http://www.w3.org/1999/xlink" x="0px" y="0px"
	 viewBox="0 0 341.8 123.2" style="enable-background:new 0 0 341.8 123.2;" xml:space="preserve">
<style type="text/css">
	.st0{fill:#D7006D;}
	.st1{font-family:'ArcaMajora3-Heavy';}
	.st2{font-size:23.0814px;}
	.st3{font-family:'ArcaMajora3-Bold';}
	.st4{font-size:8.2531px;}
	.st5{fill:#FFDD00;}
</style>
<g>
	<text transform="matrix(1 0 0 1 127.4498 43.7895)"><tspan x="0" y="0" class="st0 st1 st2">Szybka </tspan><tspan x="0" y="27.7" class="st0 st1 st2">Kolej </tspan><tspan x="0" y="55.4" class="st0 st1 st2">Metropolitarna</tspan></text>
	<text transform="matrix(1 0 0 1 302.6974 86.8628)" class="st0 st3 st4">GZM</text>
</g>
<g>
	<path class="st5" d="M102.8,60.9c0-24.4-19.8-44.2-44.2-44.2c-24.4,0-44.2,19.8-44.2,44.2c0,13.4,6,25.4,15.4,33.5l3.5-3.5l0,0
		l4.2-4.2l0.1-0.1l-0.1-0.1l0,0l-4.1-4.1h-0.1v-0.1l-0.1-0.1l0.1-0.1V65.4h0l-0.1-0.1l4.2-4.2l4.2,4.2L46,61l4.2,4.2l-0.1,0.1h0.7
		l-0.3-0.3l4.2-4.2l4.2,4.2l4.2-4.2l4.2,4.2l4-4l4.2,4.2l4.2-4.2l4.2,4.2L84,65.4h0.1v17h-0.2l-4.1,4.1l-0.1,0.1l0.2,0.2l0,0
		l4.2,4.2L84.1,91l3.4,3.4C96.9,86.2,102.8,74.3,102.8,60.9z M58.7,57.4l-4-4l-4,4l-4.1-4.1l-4.1,4.1l-4.2-4.2l4.2-4.2l4.1,4.1
		l4.1-4.1l4,4l4-4l4.2,4.2L58.7,57.4z M75.5,57.1L71.4,53l-4.1,4.1L63,52.9l4.2-4.2l4.1,4.1l4.1-4.1l4.2,4.2L75.5,57.1z M80,44.3
		l-4.2-4.2l-4.2,4.2l-4.2-4.2h-0.2l-4.2,4.2l-4.2-4.2l-4.2,4.2l-4.2-4.2L46,44.3l-4.2-4.2l-4.2,4.2l-4.2-4.2l4.2-4.2l4.2-4.2
		l0.2,0.2h16.4l0.2-0.2l0.2,0.2h16.7l0.2-0.2l4.2,4.2l0,0l4.2,4.2L80,44.3z"/>
	<g>
		<polygon class="st5" points="67.2,65.3 67.2,65.4 67.3,65.4 		"/>
		<path class="st5" d="M71.5,95.1l-4.2-4.2H50.2L46,95.1l-4.2-4.2l-7.2,7.2c6.9,4.4,15.1,7,23.9,7c8.9,0,17.2-2.6,24.1-7.2l-7-7
			L71.5,95.1z"/>
		<polygon class="st0" points="54.7,52.9 50.7,48.9 46.6,53.1 42.4,48.9 38.2,53.2 42.4,57.4 46.6,53.2 50.7,57.4 54.7,53.4 
			58.7,57.4 62.9,53.2 58.7,48.9 		"/>
		<polygon class="st0" points="71.4,52.8 67.3,48.6 63,52.9 67.3,57.1 71.4,53 75.5,57.1 79.8,52.9 75.5,48.6 		"/>
		<polygon class="st0" points="41.8,40.1 46,44.3 50.2,40.1 54.4,44.3 58.6,40.1 62.9,44.3 67.1,40.1 67.3,40.1 71.5,44.3 
			75.8,40.1 80,44.3 84.2,40.1 80,35.8 80,35.8 75.8,31.6 75.5,31.8 58.8,31.8 58.6,31.6 58.4,31.8 42,31.8 41.8,31.6 37.6,35.8 
			33.3,40.1 37.6,44.3 		"/>
		<path class="st0" d="M84.1,91L84.1,91L80,86.6l0,0l-0.2-0.2l0.1-0.1l4.1-4.1h0.2v-17H84l0.1-0.1L79.9,61l-4.2,4.2L71.4,61l-4,4
			l-4.2-4.2L59,65.1l-4.2-4.2l-4.2,4.2l0.3,0.3h-0.7l0.1-0.1L46,61l-4.2,4.2L37.6,61l-4.2,4.2l0.1,0.1h0v16.7l-0.1,0.1l0.1,0.1v0.1
			h0.1l4.1,4.1l0,0l0.1,0.1l-0.1,0.1l-4.2,4.2l0,0l-3.5,3.5c1.5,1.3,3.1,2.5,4.8,3.6l7.2-7.2l4.2,4.2l4.2-4.2h17.1l4.2,4.2l4.2-4.2
			l7,7c1.7-1.1,3.3-2.3,4.8-3.6L84.1,91z M67.2,65.3L67.2,65.3L67.2,65.3L67.2,65.3z"/>
	</g>
</g>
</svg>
