<?xml version="1.0" encoding="utf-8"?>
<!-- Generator: Adobe Illustrator 19.0.0, SVG Export Plug-In . SVG Version: 6.00 Build 0)  -->
<svg version="1.1" id="Layer_1" xmlns="http://www.w3.org/2000/svg" xmlns:xlink="http://www.w3.org/1999/xlink" x="0px" y="0px"
	 viewBox="0 0 341.8 123.2" style="enable-background:new 0 0 341.8 123.2;" xml:space="preserve">
<style type="text/css">
	.st0{fill:#D7006D;}
	.st1{fill:#FFDD00;}
</style>
<g>
	<g id="XMLID_34_">
		<path id="XMLID_35_" class="st0" d="M128,39.2l3.6-1.6c0.2,1.5,1.2,2.5,2.6,2.5c1.3,0,2.1-0.8,2.1-2.1c0-3-7.3-2.1-7.3-8
			c0-3,2.2-5.2,5.3-5.2c2.4,0,4.5,1.4,5.2,3.6l-3.4,1.5c-0.3-0.8-0.9-1.4-1.8-1.4c-0.9,0-1.5,0.6-1.5,1.3c0,2.6,7.4,2,7.4,8.2
			c0,3.4-2.5,5.9-6,5.9C131.3,44,128.7,42.1,128,39.2z"/>
		<path id="XMLID_37_" class="st0" d="M147.4,34.6h-5.1v-3.3h11.5l-5.9,9.2h5.4v3.3h-11.8L147.4,34.6z"/>
		<path id="XMLID_39_" class="st0" d="M168.3,31.2l-7.2,17.9h-4.1l2.3-5.9l-4.9-12h4.3l2.6,7.1l2.7-7.1H168.3z"/>
		<path id="XMLID_41_" class="st0" d="M173.7,42.9l0,0.9h-3.7V25.1h3.9V32c0.9-0.6,2-1,3.3-1c3.5,0,6.3,2.9,6.3,6.5
			c0,3.6-2.8,6.5-6.3,6.5C175.8,44,174.6,43.6,173.7,42.9z M179.5,37.5c0-1.7-1.2-2.9-2.9-2.9s-2.9,1.3-2.9,2.9c0,1.7,1.3,3,2.9,3
			C178.2,40.4,179.5,39.1,179.5,37.5z"/>
		<path id="XMLID_44_" class="st0" d="M193.2,36.8l5,7h-5l-3.5-5.3v5.3h-3.9V25.1h3.9v10.3l3.6-4.1h5.1L193.2,36.8z"/>
		<path id="XMLID_46_" class="st0" d="M198.4,37.5c0-3.6,2.8-6.5,6.2-6.5c1.3,0,2.4,0.3,3.3,1v-0.7h3.9v12.6h-3.7l0-0.9
			c-0.9,0.7-2.1,1.1-3.5,1.1C201.1,44,198.4,41.1,198.4,37.5z M208,37.5c0-1.6-1.2-2.9-2.8-2.9c-1.6,0-2.9,1.2-2.9,2.9
			s1.3,2.9,2.9,2.9C206.7,40.4,208,39.1,208,37.5z"/>
		<path id="XMLID_49_" class="st0" d="M138.3,71.5l-5.3-8.3v8.3h-3.9V52.8h3.9v6.9l5.2-6.9h4.8l-6.6,8.6l6.6,10.1H138.3z"/>
		<path id="XMLID_51_" class="st0" d="M143.4,65.2c0-3.7,2.9-6.5,6.6-6.5c3.7,0,6.6,2.9,6.6,6.5s-2.9,6.5-6.6,6.5
			C146.3,71.7,143.4,68.9,143.4,65.2z M152.8,65.2c0-1.5-1.2-2.8-2.8-2.8c-1.6,0-2.8,1.2-2.8,2.8c0,1.6,1.2,2.8,2.8,2.8
			C151.6,68,152.8,66.8,152.8,65.2z"/>
		<path id="XMLID_54_" class="st0" d="M159,52.8h3.9v18.7H159V52.8z"/>
		<path id="XMLID_56_" class="st0" d="M178.3,65.1L178.3,65.1l0,1.1h-9c0.3,1.3,1.4,2.2,2.7,2.2c1,0,1.8-0.4,2.4-1.2l3.5,0.9
			c-1,2.3-3.2,3.6-5.9,3.6c-3.8,0-6.7-2.8-6.7-6.5c0-3.7,2.9-6.5,6.6-6.5C175.6,58.7,178.3,61.4,178.3,65.1z M169.4,63.7h4.9
			c-0.4-1.1-1.2-1.7-2.4-1.7C170.7,62,169.9,62.6,169.4,63.7z"/>
		<path id="XMLID_59_" class="st0" d="M178,73.2h1.7c0.6,0,1-0.5,1-1.3v-13h3.9v13.3c0,2.7-1.8,4.5-4.5,4.5H178V73.2z M180.4,55.6
			c0-1.2,1-2.2,2.2-2.2c1.2,0,2.2,1,2.2,2.2c0,1.2-1,2.2-2.2,2.2C181.4,57.8,180.4,56.8,180.4,55.6z"/>
		<path id="XMLID_62_" class="st0" d="M129.1,80l8.9,11.1l8.9-11.1v19.2H143V91l-5,6.4l-5-6.4v8.1h-3.9V80z"/>
		<path id="XMLID_64_" class="st0" d="M162.4,92.8L162.4,92.8l0,1.1h-9c0.3,1.3,1.4,2.2,2.7,2.2c1,0,1.8-0.4,2.4-1.2l3.5,0.9
			c-1,2.3-3.2,3.6-5.9,3.6c-3.8,0-6.7-2.8-6.7-6.5c0-3.7,2.9-6.5,6.6-6.5C159.7,86.4,162.4,89.1,162.4,92.8z M153.5,91.4h4.9
			c-0.4-1.1-1.2-1.7-2.4-1.7C154.8,89.7,153.9,90.3,153.5,91.4z"/>
		<path id="XMLID_67_" class="st0" d="M166,90h-2.3v-3.3h2.3v-4.2h3.9v4.2h2.3V90h-2.3v9.2H166V90z"/>
		<path id="XMLID_69_" class="st0" d="M178.1,93.6v5.6h-3.9V86.6h3.9v1.7c0.4-1.4,1.6-1.9,2.7-1.9c0.1,0,0.3,0,0.4,0v3.8
			C179.5,89.8,178.1,90.7,178.1,93.6z"/>
		<path id="XMLID_71_" class="st0" d="M182.3,92.9c0-3.7,2.9-6.5,6.6-6.5c3.7,0,6.6,2.9,6.6,6.5s-2.9,6.5-6.6,6.5
			C185.2,99.4,182.3,96.6,182.3,92.9z M191.7,92.9c0-1.5-1.2-2.8-2.8-2.8c-1.6,0-2.8,1.2-2.8,2.8c0,1.6,1.2,2.8,2.8,2.8
			C190.5,95.7,191.7,94.5,191.7,92.9z"/>
		<path id="XMLID_74_" class="st0" d="M197.9,86.6h3.9v0.7c0.9-0.6,2-1,3.2-1c3.4,0,6.2,2.9,6.2,6.5s-2.8,6.5-6.2,6.5
			c-1.2,0-2.3-0.3-3.2-1v6h-3.9V86.6z M207.3,92.9c0-1.6-1.3-2.9-2.8-2.9c-1.6,0-2.9,1.3-2.9,2.9s1.3,2.9,2.9,2.9
			C206,95.8,207.3,94.5,207.3,92.9z"/>
		<path id="XMLID_77_" class="st0" d="M212.8,92.9c0-3.7,2.9-6.5,6.6-6.5c3.7,0,6.6,2.9,6.6,6.5s-2.9,6.5-6.6,6.5
			C215.7,99.4,212.8,96.6,212.8,92.9z M222.2,92.9c0-1.5-1.2-2.8-2.8-2.8c-1.6,0-2.8,1.2-2.8,2.8c0,1.6,1.2,2.8,2.8,2.8
			C221,95.7,222.2,94.5,222.2,92.9z"/>
		<path id="XMLID_80_" class="st0" d="M228.4,80.5h3.9v18.7h-3.9V80.5z"/>
		<path id="XMLID_82_" class="st0" d="M235.2,83.3c0-1.2,1-2.2,2.2-2.2s2.2,1,2.2,2.2s-1,2.2-2.2,2.2S235.2,84.5,235.2,83.3z
			 M235.5,86.6h3.9v12.6h-3.9V86.6z"/>
		<path id="XMLID_85_" class="st0" d="M243.7,90h-2.3v-3.3h2.3v-4.2h3.9v4.2h2.3V90h-2.3v9.2h-3.9V90z"/>
		<path id="XMLID_87_" class="st0" d="M250.7,92.9c0-3.6,2.8-6.5,6.2-6.5c1.3,0,2.4,0.3,3.3,1v-0.7h3.9v12.6h-3.7l0-0.9
			c-0.9,0.7-2.1,1.1-3.5,1.1C253.5,99.4,250.7,96.5,250.7,92.9z M260.4,92.9c0-1.6-1.2-2.9-2.8-2.9c-1.6,0-2.9,1.2-2.9,2.9
			s1.3,2.9,2.9,2.9C259.1,95.8,260.4,94.5,260.4,92.9z"/>
		<path id="XMLID_90_" class="st0" d="M271.2,93.6v5.6h-3.9V86.6h3.9v1.7c0.4-1.4,1.6-1.9,2.7-1.9c0.1,0,0.3,0,0.4,0v3.8
			C272.6,89.8,271.2,90.7,271.2,93.6z"/>
		<path id="XMLID_92_" class="st0" d="M276.6,86.6h3.9v0.8c0.8-0.7,1.7-1,2.7-1c2.6,0,4.6,2.1,4.6,4.8v8h-3.9v-7.6
			c0-0.9-0.7-1.6-1.6-1.6c-1,0-1.7,0.7-1.7,1.6v7.6h-3.9V86.6z"/>
		<path id="XMLID_94_" class="st0" d="M289.8,92.9c0-3.6,2.8-6.5,6.2-6.5c1.3,0,2.4,0.3,3.3,1v-0.7h3.9v12.6h-3.7l0-0.9
			c-0.9,0.7-2.1,1.1-3.5,1.1C292.6,99.4,289.8,96.5,289.8,92.9z M299.5,92.9c0-1.6-1.2-2.9-2.8-2.9c-1.6,0-2.9,1.2-2.9,2.9
			s1.3,2.9,2.9,2.9S299.5,94.5,299.5,92.9z"/>
	</g>
	<g id="XMLID_27_">
		<path id="XMLID_28_" class="st0" d="M303.1,83.7c0-1.8,1.5-3.3,3.3-3.3c0.8,0,1.6,0.3,2.3,0.9l-0.8,0.8c-0.4-0.4-0.9-0.6-1.5-0.6
			c-1.2,0-2.2,0.9-2.2,2.2c0,1.2,1,2.2,2.2,2.2c0.5,0,0.9-0.1,1.3-0.4v-1.2h-1.3v-1.1h2.3v2.9c-0.7,0.5-1.4,0.9-2.3,0.9
			C304.5,86.9,303.1,85.5,303.1,83.7z"/>
		<path id="XMLID_30_" class="st0" d="M312.6,81.6h-3v-1.1h4.8l-3.1,5.3h3.1v1.1h-5L312.6,81.6z"/>
		<path id="XMLID_32_" class="st0" d="M315.3,80.3l3,4.2l3-4.2v6.5h-1.1v-3.3l-2,2.7l-1.9-2.7v3.3h-1.1V80.3z"/>
	</g>
</g>
<g>
	<path class="st1" d="M102.8,60.9c0-24.4-19.8-44.2-44.2-44.2c-24.4,0-44.2,19.8-44.2,44.2c0,13.4,6,25.4,15.4,33.5l3.5-3.5l0,0
		l4.2-4.2l0.1-0.1l-0.1-0.1l0,0l-4.1-4.1h-0.1v-0.1l-0.1-0.1l0.1-0.1V65.4h0l-0.1-0.1l4.2-4.2l4.2,4.2L46,61l4.2,4.2l-0.1,0.1h0.7
		l-0.3-0.3l4.2-4.2l4.2,4.2l4.2-4.2l4.2,4.2l4-4l4.2,4.2l4.2-4.2l4.2,4.2L84,65.4h0.1v17h-0.2l-4.1,4.1l-0.1,0.1l0.2,0.2l0,0
		l4.2,4.2L84.1,91l3.4,3.4C96.9,86.2,102.8,74.3,102.8,60.9z M58.7,57.4l-4-4l-4,4l-4.1-4.1l-4.1,4.1l-4.2-4.2l4.2-4.2l4.1,4.1
		l4.1-4.1l4,4l4-4l4.2,4.2L58.7,57.4z M75.5,57.1L71.4,53l-4.1,4.1L63,52.9l4.2-4.2l4.1,4.1l4.1-4.1l4.2,4.2L75.5,57.1z M80,44.3
		l-4.2-4.2l-4.2,4.2l-4.2-4.2h-0.2l-4.2,4.2l-4.2-4.2l-4.2,4.2l-4.2-4.2L46,44.3l-4.2-4.2l-4.2,4.2l-4.2-4.2l4.2-4.2l4.2-4.2
		l0.2,0.2h16.4l0.2-0.2l0.2,0.2h16.7l0.2-0.2l4.2,4.2l0,0l4.2,4.2L80,44.3z"/>
	<g>
		<polygon class="st1" points="67.2,65.3 67.2,65.4 67.3,65.4 		"/>
		<path class="st1" d="M71.5,95.1l-4.2-4.2H50.2L46,95.1l-4.2-4.2l-7.2,7.2c6.9,4.4,15.1,7,23.9,7c8.9,0,17.2-2.6,24.1-7.2l-7-7
			L71.5,95.1z"/>
		<polygon class="st0" points="54.7,52.9 50.7,48.9 46.6,53.1 42.4,48.9 38.2,53.2 42.4,57.4 46.6,53.2 50.7,57.4 54.7,53.4 
			58.7,57.4 62.9,53.2 58.7,48.9 		"/>
		<polygon class="st0" points="71.4,52.8 67.3,48.6 63,52.9 67.3,57.1 71.4,53 75.5,57.1 79.8,52.9 75.5,48.6 		"/>
		<polygon class="st0" points="41.8,40.1 46,44.3 50.2,40.1 54.4,44.3 58.6,40.1 62.9,44.3 67.1,40.1 67.3,40.1 71.5,44.3 
			75.8,40.1 80,44.3 84.2,40.1 80,35.8 80,35.8 75.8,31.6 75.5,31.8 58.8,31.8 58.6,31.6 58.4,31.8 42,31.8 41.8,31.6 37.6,35.8 
			33.3,40.1 37.6,44.3 		"/>
		<path class="st0" d="M84.1,91L84.1,91L80,86.6l0,0l-0.2-0.2l0.1-0.1l4.1-4.1h0.2v-17H84l0.1-0.1L79.9,61l-4.2,4.2L71.4,61l-4,4
			l-4.2-4.2L59,65.1l-4.2-4.2l-4.2,4.2l0.3,0.3h-0.7l0.1-0.1L46,61l-4.2,4.2L37.6,61l-4.2,4.2l0.1,0.1h0v16.7l-0.1,0.1l0.1,0.1v0.1
			h0.1l4.1,4.1l0,0l0.1,0.1l-0.1,0.1l-4.2,4.2l0,0l-3.5,3.5c1.5,1.3,3.1,2.5,4.8,3.6l7.2-7.2l4.2,4.2l4.2-4.2h17.1l4.2,4.2l4.2-4.2
			l7,7c1.7-1.1,3.3-2.3,4.8-3.6L84.1,91z M67.2,65.3L67.2,65.3L67.2,65.3L67.2,65.3z"/>
	</g>
</g>
</svg>
