<?xml version="1.0" encoding="utf-8"?>
<!-- Generator: Adobe Illustrator 16.0.0, SVG Export Plug-In . SVG Version: 6.00 Build 0)  -->
<!DOCTYPE svg PUBLIC "-//W3C//DTD SVG 1.1//EN" "http://www.w3.org/Graphics/SVG/1.1/DTD/svg11.dtd">
<svg version="1.1" id="Layer_1" xmlns="http://www.w3.org/2000/svg" xmlns:xlink="http://www.w3.org/1999/xlink" x="0px" y="0px"
	 width="79px" height="74px" viewBox="0 0 79 74" enable-background="new 0 0 79 74" xml:space="preserve">
<path id="path" fill="#F36AF6" d="M65.927,54.074c0.417-1.104,0.764-2.256,1.049-3.438c-3.752,0.35-6.8-0.563-9.402-1.639
	c-4.146-1.877-7.149-4.166-9.458-6.084c2.404,0.924,5.512,1.924,9.736,2.086c2.751,0.01,5.974-0.334,9.92-2.229
	c-0.048-1.157-0.169-2.302-0.354-3.44c-4.201,1.728-7.566,1.844-10.407,1.67c-4.089-0.39-7.083-1.383-9.416-2.295
	c3.737-0.491,9.563-1.537,17.331-7.672c-0.422-0.982-0.884-1.96-1.383-2.937c-7.905,5.134-13.652,5.871-17.396,6.314
	c2.722-2.424,6.852-6.329,12.243-14.505c-0.658-0.865-1.345-1.71-2.059-2.526c-5.674,7.359-9.86,10.86-12.581,13.151
	c1.351-3.758,3.255-8.748,6.335-18.805c-0.933-0.632-1.896-1.197-2.89-1.676c-3.274,9.255-5.19,13.998-6.563,17.639
	c-0.088-4.251-0.118-11.099-0.49-19.725c-1.043-0.203-2.075-0.372-3.094-0.498c0.154,8.107,0.198,12.937,0.265,17.121
	c-1.596-4.834-4.06-10.675-7.586-17.156c-0.855,0.119-1.695,0.288-2.521,0.512c3.098,6.484,5.476,13.76,7.052,18.579
	c-2.975-4.348-7.552-10.97-14.013-15.03c-0.729,0.578-1.433,1.213-2.106,1.906c6.152,3.983,10.754,10.531,13.716,14.824
	c-2.18-1.81-4.977-3.944-8.816-5.798c-2.683-1.193-5.87-2.248-9.872-1.852c-0.521,1.066-0.979,2.177-1.379,3.318
	c3.692-0.44,6.703,0.419,9.276,1.447c3.951,1.73,6.861,3.858,9.115,5.658c-2.462-0.883-5.661-1.842-10.067-1.922
	c-2.755,0.046-5.976,0.433-9.923,2.276c-0.074,1.085-0.085,2.162-0.019,3.232c4.107-1.644,7.428-1.845,10.25-1.757
	c4.339,0.282,7.489,1.248,9.941,2.153c-3.917,0.394-10.012,1.153-18.701,6.858c0.322,0.938,0.692,1.875,1.107,2.813
	c8.823-4.765,14.905-5.205,18.881-5.51c-3.047,2.215-7.727,5.798-14.324,13.403c0.694,0.963,1.433,1.916,2.214,2.844
	c6.913-6.916,11.638-10.125,14.661-12.252c-1.562,3.763-3.739,8.733-7.479,18.935c1.127,0.786,2.302,1.492,3.521,2.097
	c3.868-9.4,5.942-14.168,7.427-17.895c0.202,4.419,0.16,12.604,1.128,21.52l4.307-0.045c-0.812-8.262-1.43-15.402-1.704-19.785
	c1.889,5.027,4.876,12.765,9.613,19.445c0.943-0.16,1.858-0.386,2.745-0.679c-4.317-6.577-7.248-13.927-9.149-18.909
	c3.201,4.461,8.117,11.122,15.458,15.214c0.687-0.627,1.335-1.315,1.943-2.06C54.897,56.994,50,50.381,46.849,45.992
	c2.299,1.943,5.253,4.234,9.347,6.18C58.864,53.336,62.012,54.354,65.927,54.074"/>
</svg>
